<?xml version="1.0" encoding="UTF-8"?><svg xmlns="http://www.w3.org/2000/svg" viewBox="0 0 56.31 46.65"><defs><style>.c{fill:#fff;}.d{fill:#386938;}</style></defs><g id="a"/><g id="b"><g><path class="d" d="M31.95,10.2c2.22-.06,4.02-.09,5.82-.15,.65-.02,1.3-.09,1.95-.14,.26-.02,.42,.07,.6,.26,.99,1.07,2,2.12,3.01,3.18,.23,.24,.38,.23,.63-.03,.87-.91,1.74-1.81,2.59-2.73,.16-.17,.27-.23,.53-.18,2.78,.55,4.13,2.31,4.45,4.56,.12,.87,.14,1.75,.16,2.63,.03,1.33,.01,2.66,0,3.99,0,.58,.16,1.11,.54,1.57,1.04,1.27,.99,2.64,.48,4.06-.1,.27-.21,.24-.42,.1-1.14-.8-1.84-1.86-1.88-3.17-.06-2.4,0-4.8-.02-7.21,0-.61-.1-1.21-.15-1.82,0-.04-.03-.08-.05-.11-.01,.03-.03,.07-.03,.1-.39,2.21-.82,4.41-1.15,6.63-.13,.83-.09,1.7-.02,2.55,.03,.37,.26,.77,.52,1.08,.39,.47,.47,.95,.4,1.51-.11,.86-.24,1.72-.29,2.58-.06,1.17-.07,2.34-.08,3.51,0,.35-.07,.61-.46,.76-.09,.04-.17,.17-.19,.28-.07,.3-.11,.6-.15,.9-.03,.26-.2,.35-.46,.35-.92,0-1.84,0-2.76,0-.25,0-.31-.08-.27-.32,.08-.52,.27-1,.66-1.39,.69-.7,1-1.49,.89-2.44-.09-.79-.1-1.58-.15-2.37-.05-.82-.5-1.44-1.16-1.97-1.11-.89-2.25-1.76-3.31-2.7-.63-.56-1.13-1.26-1.69-1.89-.04-.05-.08-.09-.12-.14,.01,.07,.01,.13,.03,.2,.45,1.26,1.2,2.36,2.26,3.26,.59,.51,1.21,.99,1.86,1.44,.28,.19,.27,.34,.16,.6-.59,1.33-1.17,2.66-1.73,4-.23,.56-.38,1.14-.6,1.7-.06,.17-.2,.34-.36,.44-.19,.12-.31,.23-.32,.46-.01,.25-.1,.5-.13,.76-.03,.24-.17,.35-.42,.35-.96,0-1.92,0-2.88,0-.27,0-.3-.15-.24-.31,.15-.4,.23-.89,.54-1.16,1.39-1.21,1.73-2.84,2.25-4.4,.16-.48,.28-.96,.42-1.44,.04-.14,.04-.18-.14-.18-.54,0-1.09-.04-1.63-.04-.09,0-.19,.07-.26,.13-.15,.14-.29,.29-.42,.44-.2,.24-.45,.25-.75,.19-.36-.07-.54-.26-.57-.6-.01-.18-.09-.37-.06-.54,.12-.65-.27-1.09-.65-1.57-.43-.55-.41-.56-1.13-.4-.85,.18-1.7,.42-2.56,.5-1.13,.11-2.29,.15-3.43,.09-1.38-.07-2.76-.19-4.15-.08-.28,.02-.56,.03-.83,.08-.23,.05-.25-.05-.24-.21,.02-.21,.05-.41,.07-.62,0-.04-.01-.09-.02-.14-.02,.04-.05,.08-.06,.13-.23,.98-.49,1.97-.69,2.96-.3,1.51-.29,3.03-.2,4.56,.01,.21,.04,.42,0,.62-.02,.14-.1,.34-.22,.4-.3,.14-.33,.35-.32,.61,0,.16-.02,.32-.05,.47-.08,.47-.13,.5-.63,.5-.89,0-1.79-.01-2.68,0-.31,0-.4-.13-.31-.35,.17-.41,.31-.84,.58-1.19,.71-.9,.89-1.88,.8-2.97-.1-1.22-.41-2.4-.7-3.59-.03-.11-.07-.21-.12-.31-.06-.13-.06-.23-.32-.13-.25,.1-.6,0-.9-.04-1.6-.23-3.07-.71-4.2-1.82-.83-.81-1.31-1.79-1.64-2.85-.52-1.69-1.22-3.31-1.98-4.92-.37-.78-.98-1.06-1.82-1.09-.62-.02-1.23-.04-1.83,.23-.64,.28-1.35,.29-2.03,.13-.29-.07-.56-.22-.81-.37-.28-.17-.53-.39-.8-.59-.33-.25-.36-.62-.41-.96-.08-.55,.06-1.03,.52-1.47,.96-.91,1.68-1.98,2.17-3.16,.16-.39,.14-.39-.29-.48-.97-.2-1.56-.79-1.95-1.59-.12-.25,.02-.42,.26-.53,.74-.35,1.49-.3,2.23,0,.19,.08,.39,.25,.55,.22,.13-.02,.2-.29,.31-.44,.66-.92,1.53-1.51,2.79-1.47,.29,0,.59,.01,.88,0,1.34-.05,2.51,.37,3.58,1.05,.26,.17,.51,.22,.8,.09,.41-.18,.82-.36,1.23-.51,.91-.33,1.81-.15,2.68,.13,.39,.13,.48,.44,.28,.82-.41,.75-1.05,1.28-1.88,1.62-.16,.07-.31,.13-.47,.2,.17,.06,.34,.14,.52,.16,.75,.08,1.5,.16,2.26,.2,1.27,.07,2.56,.07,3.82,.19,1.01,.1,2,.37,3.01,.51,.83,.11,1.67,.17,2.5,.2,1.13,.03,2.27,0,2.97,0Zm1.23,8.06c1.36,0,2.72,0,4.08,0,.07,0,.14,.03,.21,.04-.04,.05-.07,.1-.11,.14-.75,.68-1.49,1.37-2.25,2.03-.14,.13-.4,.2-.6,.2-.8,.02-1.6,0-2.4,.01-.26,0-.43-.06-.58-.27-.24-.36-.78-.51-1.19-.38-.45,.14-.75,.56-.73,1.03,.02,.45,.32,.78,.79,.9,.49,.12,.97-.03,1.19-.44,.12-.21,.26-.23,.47-.23,.85,0,1.71,0,2.56,0,.34,0,.61-.08,.86-.31,.93-.85,1.88-1.69,2.83-2.53,.11-.1,.29-.19,.44-.19,1.95-.01,3.89-.01,5.84,0,.12,0,.27,.07,.36,.15,.34,.32,.76,.39,1.09,.13,.34-.26,.37-.71,.07-1.01-.3-.3-.73-.3-1.1-.02-.09,.07-.22,.15-.33,.15-1.75,0-3.49,0-5.24,0-.06,0-.12-.02-.18-.03,.03-.05,.05-.1,.09-.14,.42-.39,.85-.78,1.27-1.16,.22-.2,.47-.28,.79-.28,1.41,.01,2.83,.02,4.24,0,.29,0,.6-.15,.87-.29,.15-.08,.24-.07,.38-.05,.23,.04,.48,.06,.7,0,.54-.13,.84-.69,.7-1.2-.14-.5-.69-.81-1.27-.72-.53,.08-.92,.59-.86,1.12,.04,.34-.13,.53-.51,.56-.11,0-.21,0-.32,0-1.36,0-2.72,.01-4.08,0-.46,0-.82,.15-1.13,.44-.57,.53-1.14,1.06-1.73,1.57-.12,.1-.32,.18-.48,.18-1.17,.02-2.35,0-3.52,0-.09,0-.17-.03-.26-.04,.05-.07,.1-.14,.16-.2,.86-.82,1.74-1.62,2.58-2.45,.25-.24,.45-.55,.59-.85,.09-.19,.17-.32,.36-.44,.46-.31,.57-.9,.27-1.34-.3-.44-.92-.58-1.44-.33-.74,.36-.77,1.3-.02,1.7,.28,.15,.26,.26,.12,.44-.16,.21-.33,.41-.53,.6-.99,.93-1.98,1.85-2.98,2.76-.11,.1-.3,.16-.45,.16-1.21,.01-2.43,0-3.64,.01-.23,0-.39-.06-.55-.21-.99-.96-2.17-1.68-3.48-2.22-1.84-.76-3.73-.94-5.68-.46-1.95,.48-3.58,1.47-4.98,2.79-.4,.38-.41,.46,0,.84,.88,.84,1.9,1.53,3.03,2.06,2.13,1.01,4.35,1.24,6.65,.59,1.76-.49,3.23-1.4,4.52-2.59,.17-.16,.34-.23,.59-.23,1.31,.01,2.61,0,3.92,0Zm-10.77-6h0c.73,0,1.47,.01,2.2,0,.23,0,.4,.06,.56,.21,.63,.59,1.29,1.17,1.93,1.76,.23,.21,.48,.31,.81,.3,1.03-.02,2.05,0,3.08,0,.2,0,.35,.01,.5,.2,.31,.41,.96,.44,1.33,.11,.39-.35,.37-.92-.06-1.26-.42-.34-.94-.26-1.31,.17-.08,.1-.24,.19-.37,.19-1.04,.01-2.08,.01-3.12,0-.15,0-.33-.09-.44-.18-.62-.55-1.24-1.11-1.84-1.68-.29-.27-.6-.4-1.02-.4-1.47,.02-2.93,.01-4.4,0-.14,0-.33-.07-.42-.17-.37-.4-.94-.48-1.33-.16-.41,.34-.41,.92,0,1.26,.4,.33,.96,.25,1.33-.15,.08-.09,.25-.17,.38-.17,.73-.02,1.47,0,2.2,0Z"/><path class="d" d="M43.56,0c2.43-.09,5.42,1.7,5.33,4.85-.02,.7-.25,1.36-.6,1.99-.71,1.28-1.69,2.39-2.69,3.48-.58,.62-1.18,1.23-1.76,1.84-.11,.12-.19,.17-.33,.01-1.21-1.34-2.46-2.65-3.64-4.02-.68-.79-1.19-1.68-1.38-2.68-.34-1.82,.28-3.31,1.87-4.45C41.32,.33,42.41-.03,43.56,0Zm.09,7.13c1.42,.08,2.57-1.1,2.6-2.31,.04-1.37-1.28-2.44-2.51-2.46-1.55-.03-2.73,.83-2.76,2.38-.02,1.38,1.33,2.45,2.66,2.39Z"/><path class="d" d="M15.89,35.25c-.44,0-.88,0-1.32,0-.29,0-.42-.11-.3-.35,.23-.49,.37-1.05,.74-1.44,.72-.76,.87-1.63,1-2.56,.17-1.24-.08-2.46-.07-3.69,0-.13,0-.27-.01-.4-.01-.16,.02-.22,.22-.15,.97,.38,1.99,.6,3.03,.74,.29,.04,.33,.15,.26,.39-.36,1.3-.59,2.62-.71,3.96-.05,.53-.13,1.07-.22,1.59-.02,.12-.15,.23-.24,.34-.11,.14-.26,.27-.32,.42-.09,.23-.13,.47-.17,.71-.05,.3-.2,.45-.55,.44-.44-.01-.88,0-1.32,0Z"/><path class="c" d="M33.18,18.26c-1.31,0-2.61,0-3.92,0-.25,0-.42,.07-.59,.23-1.29,1.18-2.77,2.09-4.52,2.59-2.3,.65-4.52,.42-6.65-.59-1.13-.53-2.15-1.22-3.03-2.06-.4-.38-.39-.46,0-.84,1.4-1.32,3.02-2.3,4.98-2.79,1.95-.48,3.84-.3,5.68,.46,1.31,.54,2.49,1.26,3.48,2.22,.16,.16,.32,.21,.55,.21,1.21,0,2.43,0,3.64-.01,.15,0,.34-.06,.45-.16,1-.91,1.99-1.83,2.98-2.76,.19-.18,.36-.39,.53-.6,.14-.18,.16-.29-.12-.44-.75-.4-.73-1.34,.02-1.7,.52-.25,1.14-.11,1.44,.33,.3,.44,.2,1.03-.27,1.34-.18,.12-.27,.26-.36,.44-.14,.31-.34,.61-.59,.85-.84,.83-1.72,1.64-2.58,2.45-.06,.06-.11,.13-.16,.2,.09,.01,.17,.04,.26,.04,1.17,0,2.35,0,3.52,0,.16,0,.36-.08,.48-.18,.59-.51,1.16-1.04,1.73-1.57,.31-.29,.67-.45,1.13-.44,1.36,.02,2.72,0,4.08,0,.11,0,.21,0,.32,0,.37-.03,.54-.22,.51-.56-.06-.53,.33-1.03,.86-1.12,.58-.09,1.12,.22,1.27,.72,.15,.5-.16,1.07-.7,1.2-.22,.05-.47,.03-.7,0-.15-.02-.24-.03-.38,.05-.26,.14-.57,.29-.87,.29-1.41,.03-2.83,.02-4.24,0-.32,0-.57,.08-.79,.28-.43,.39-.85,.77-1.27,1.16-.04,.04-.06,.1-.09,.14,.06,.01,.12,.03,.18,.03,1.75,0,3.49,0,5.24,0,.11,0,.24-.08,.33-.15,.37-.29,.8-.29,1.1,.02,.3,.3,.27,.75-.07,1.01-.33,.25-.76,.19-1.09-.13-.09-.08-.24-.15-.36-.15-1.95,0-3.89-.01-5.84,0-.15,0-.32,.09-.44,.19-.95,.84-1.9,1.68-2.83,2.53-.25,.23-.52,.31-.86,.31-.85,0-1.71,0-2.56,0-.21,0-.35,.02-.47,.23-.22,.41-.7,.56-1.19,.44-.48-.12-.77-.45-.79-.9-.02-.47,.27-.89,.73-1.03,.41-.13,.95,.03,1.19,.38,.15,.21,.31,.28,.58,.27,.8-.01,1.6,0,2.4-.01,.21,0,.46-.08,.6-.2,.77-.66,1.51-1.35,2.25-2.03,.04-.04,.07-.09,.11-.14-.07-.02-.14-.04-.21-.04-1.36,0-2.72,0-4.08,0Zm-11.61,1.55c1.16,0,2.06-.79,2.07-1.85,.01-1.1-.87-1.94-2.06-1.95-1.12,0-2.05,.81-2.07,1.82-.01,1.14,.84,1.96,2.05,1.97Zm6.42-1.77c-.16-.14-.25-.21-.33-.29-.97-.81-2.05-1.46-3.26-1.93-.1-.04-.22-.06-.33-.09,.06,.09,.11,.18,.17,.27,.99,1.29,.93,2.89-.15,4.05-.05,.05-.09,.11-.13,.17,.08-.01,.17,0,.25-.03,1.36-.45,2.52-1.19,3.59-2.06,.05-.04,.12-.05,.2-.09Zm-8.76-2.26c-.11,.02-.18,.02-.23,.04-1.34,.44-2.48,1.16-3.5,2.04-.14,.12-.09,.19,.03,.28,.98,.84,2.08,1.51,3.32,1.97,.08,.03,.17,.02,.26,.02-.04-.06-.08-.12-.12-.18-1-1.36-.96-2.74,.1-4.02,.03-.04,.07-.07,.15-.16Zm11.91,5.28c0-.27-.2-.46-.45-.46-.22,0-.43,.19-.43,.4,0,.22,.21,.43,.46,.42,.27-.01,.39-.17,.42-.35Zm6.5-8.15c-.01-.26-.18-.38-.43-.41-.24-.03-.44,.15-.45,.37,0,.23,.19,.43,.44,.42,.27,0,.4-.16,.43-.38Zm10.04,1.88c0-.21-.19-.41-.42-.41-.22,0-.45,.19-.44,.39,0,.25,.18,.37,.43,.4,.22,.03,.43-.17,.44-.39Z"/><path class="c" d="M22.41,12.26c-.73,0-1.47,0-2.2,0-.13,0-.29,.08-.38,.17-.37,.41-.93,.48-1.33,.15-.41-.34-.42-.92,0-1.26,.39-.32,.96-.23,1.33,.16,.09,.1,.28,.17,.42,.17,1.47,.01,2.93,.02,4.4,0,.42,0,.73,.13,1.02,.4,.6,.57,1.22,1.13,1.84,1.68,.11,.1,.29,.18,.44,.18,1.04,.02,2.08,.02,3.12,0,.13,0,.29-.09,.37-.19,.37-.43,.89-.51,1.31-.17,.43,.34,.46,.91,.06,1.26-.37,.33-1.02,.3-1.33-.11-.14-.19-.29-.2-.5-.2-1.03,0-2.05,0-3.08,0-.33,0-.58-.09-.81-.3-.64-.59-1.29-1.16-1.93-1.76-.16-.15-.33-.21-.56-.21-.73,0-1.47,0-2.2,0h0Z"/><path class="c" d="M43.65,7.14c-1.34,.06-2.68-1.01-2.66-2.39,.03-1.55,1.21-2.41,2.76-2.38,1.23,.02,2.55,1.1,2.51,2.46-.03,1.21-1.18,2.38-2.6,2.31Z"/><path class="d" d="M21.56,19.81c-1.21-.01-2.07-.83-2.05-1.97,.01-1.01,.94-1.83,2.07-1.82,1.18,0,2.07,.85,2.06,1.95-.01,1.06-.91,1.86-2.07,1.85Z"/><path class="d" d="M27.98,18.04c-.08,.03-.15,.05-.2,.09-1.07,.87-2.23,1.61-3.59,2.06-.08,.03-.17,.02-.25,.03,.04-.06,.08-.12,.13-.17,1.08-1.16,1.14-2.76,.15-4.05-.06-.08-.11-.18-.17-.27,.11,.03,.22,.05,.33,.09,1.21,.46,2.29,1.12,3.26,1.93,.09,.07,.17,.15,.33,.29Z"/><path class="d" d="M19.22,15.78c-.08,.08-.12,.12-.15,.16-1.06,1.28-1.1,2.66-.1,4.02,.04,.06,.08,.12,.12,.18-.09,0-.18,0-.26-.02-1.24-.46-2.34-1.13-3.32-1.97-.11-.1-.17-.16-.03-.28,1.03-.88,2.17-1.6,3.5-2.04,.06-.02,.12-.02,.23-.04Z"/><path class="d" d="M31.13,21.06c-.03,.19-.16,.34-.42,.35-.24,.01-.46-.19-.46-.42,0-.21,.2-.4,.43-.4,.25,0,.45,.19,.45,.46Z"/><path class="d" d="M37.63,12.9c-.03,.22-.16,.37-.43,.38-.25,0-.45-.19-.44-.42,0-.22,.21-.39,.45-.37,.25,.03,.41,.14,.43,.41Z"/><path class="d" d="M47.67,14.78c0,.21-.22,.42-.44,.39-.24-.03-.42-.16-.43-.4,0-.2,.22-.39,.44-.39,.23,0,.42,.19,.42,.41Z"/></g></g></svg>